<svg height="40" viewBox="0 0 40 40" width="40" xmlns="http://www.w3.org/2000/svg"><g fill="none" fill-rule="evenodd"><rect fill="#0a0d1c" height="40" rx="4" width="40"/><path d="m27.0464286 20.6803571c-.0107143-1.9660714.8785714-3.45 2.6785715-4.5428571-1.0071429-1.4410715-2.5285715-2.2339286-4.5375002-2.3892858-1.9017856-.15-3.980357 1.1089286-4.7410713 1.1089286-.8035715 0-2.6464286-1.0553571-4.0928572-1.0553571-2.9892857.0482143-6.1660715 2.3839286-6.1660715 7.1357143 0 1.4035714.2571429 2.8553572.7714286 4.35.6857143 1.9660715 3.1607143 6.7875001 5.7428572 6.7071429 1.35-.0321428 2.3035714-.9589285 4.0607143-.9589285 1.7035714 0 2.5875.9589285 4.0928572.9589285 2.6035714-.0375 4.8428571-4.4196429 5.4964286-6.3910714-3.4928572-1.6446429-3.3053572-4.8214286-3.3053572-4.9232144zm-3.0321429-8.7964286c1.4625-1.7357143 1.3285715-3.31607143 1.2857143-3.88392858-1.2910714.07500001-2.7857143.87857144-3.6375 1.86964287-.9375 1.06071431-1.4892857 2.37321431-1.3714286 3.85178571 1.3982143.1071429 2.6732143-.6107143 3.7232143-1.8375z" fill="#fff"/></g></svg>