<?xml version="1.0" encoding="UTF-8"?>
<svg width="12px" height="11px" viewBox="0 0 12 11" version="1.1" xmlns="http://www.w3.org/2000/svg" xmlns:xlink="http://www.w3.org/1999/xlink">
    <title>Shape</title>
    <g id="Page-1" stroke="none" stroke-width="1" fill="none" fill-rule="evenodd">
        <g id="TOOLTIPS-REGISTRATION-v0_2-(Desktop)" transform="translate(-372.000000, -122.000000)" fill="#2D80FF">
            <g id="Group-87" transform="translate(327.000000, 15.000000)">
                <g id="Group-83" transform="translate(45.000000, 106.000000)">
                    <g id="Home" transform="translate(0.000000, 1.000000)">
                        <path d="M11.6053333,4.48119048 L6.576,0.290714286 C6.27752495,0.0421904685 5.83980838,0.0421904685 5.54133333,0.290714286 L0.512,4.48119048 C0.26224689,4.69018599 0.167751768,5.02777203 0.273625462,5.33278909 C0.379499155,5.63780616 0.664273233,5.84840474 0.992,5.86404762 L0.992,10.0545238 C0.992,10.4884618 1.3501722,10.8402381 1.792,10.8402381 L10.3253333,10.8402381 C10.7671611,10.8402381 11.1253333,10.4884618 11.1253333,10.0545238 L11.1253333,5.86666667 C11.4530601,5.85102379 11.7378342,5.64042521 11.8437079,5.33540814 C11.9495816,5.03039107 11.8550864,4.69280504 11.6053333,4.48380952 L11.6053333,4.48119048 Z M5.792,10.0571429 L5.25866667,10.0571429 L5.25866667,7.7 L6.85866667,7.7 L6.85866667,10.0571429 L5.792,10.0571429 Z M10.3253333,5.08095238 L10.3253333,10.0571429 L7.65866667,10.0571429 L7.65866667,7.7 C7.65866667,7.26606198 7.30049447,6.91428571 6.85866667,6.91428571 L5.25866667,6.91428571 C4.81683887,6.91428571 4.45866667,7.26606198 4.45866667,7.7 L4.45866667,10.0571429 L1.792,10.0571429 L1.792,5.08095238 L1.02933333,5.08095238 L6.05866667,0.89047619 L11.088,5.08095238 L10.3253333,5.08095238 Z" id="Shape"></path>
                    </g>
                </g>
            </g>
        </g>
    </g>
</svg>