<svg height="12" viewBox="0 0 12 12" width="12" xmlns="http://www.w3.org/2000/svg"><g fill="none" fill-rule="evenodd"><path d="m0 0h12v12h-12z"/><g fill="#2d80ff" fill-rule="nonzero" transform="translate(0 1)"><path d="m6 .59090909c2.72727273 0 5.0563636 1.65866667 6 4-.9436364 2.34133333-3.27272727 4-6 4s-5.05636364-1.65866667-6-4c.94363636-2.34133333 3.27272727-4 6-4zm0 1.33333333c-1.50545455 0-2.72727273 1.19466667-2.72727273 2.66666667s1.22181818 2.66666667 2.72727273 2.66666667 2.72727273-1.19466667 2.72727273-2.66666667-1.22181818-2.66666667-2.72727273-2.66666667z"/><path d="m8 4.59090909c0 1.10666667-.89333333 2-2 2s-2-.89333333-2-2 .89333333-2 2-2v2z" fill-opacity=".6" opacity=".5"/></g><path d="m0 0h12v12h-12z"/></g></svg>