<?xml version="1.0" encoding="UTF-8"?>
<svg width="12px" height="12px" viewBox="0 0 12 12" version="1.1" xmlns="http://www.w3.org/2000/svg" xmlns:xlink="http://www.w3.org/1999/xlink">
    <title>Group</title>
    <g id="Page-1" stroke="none" stroke-width="1" fill="none" fill-rule="evenodd">
        <g id="TOOLTIPS-REGISTRATION-v0_2-(Desktop)" transform="translate(-372.000000, -301.000000)">
            <g id="Group-87" transform="translate(327.000000, 15.000000)">
                <g id="Group" transform="translate(45.000000, 286.000000)">
                    <g id="Mail" transform="translate(0.000000, 1.000000)" fill="#2D80FF">
                        <path d="M11.1253333,0.106666667 L0.992,0.106666667 C0.5501722,0.106666667 0.192,0.464838867 0.192,0.906666667 L0.192,8.37333333 C0.192,8.81516113 0.5501722,9.17333333 0.992,9.17333333 L11.1253333,9.17333333 C11.5671611,9.17333333 11.9253333,8.81516113 11.9253333,8.37333333 L11.9253333,0.906666667 C11.9253333,0.464838867 11.5671611,0.106666667 11.1253333,0.106666667 Z M11.1253333,7.808 L9.008,5.69066667 C8.8503948,5.54380861 8.60479481,5.54814193 8.45246837,5.70046837 C8.30014193,5.85279481 8.29580861,6.0983948 8.44266667,6.256 L10.56,8.37333333 L1.55733333,8.37333333 L3.67466667,6.256 C3.82152473,6.0983948 3.8171914,5.85279481 3.66486496,5.70046837 C3.51253852,5.54814193 3.26693854,5.54380861 3.10933333,5.69066667 L0.992,7.808 L0.992,2.67466667 L5.792,6.29333333 C5.93422222,6.4 6.12977778,6.4 6.272,6.29333333 L11.12,2.672 L11.1253333,7.808 Z M11.1253333,0.906666667 L11.1253333,1.67466667 L6.04,5.47466667 L0.992,1.67466667 L0.992,0.906666667 L11.1253333,0.906666667 Z" id="Shape"></path>
                    </g>
                    <rect id="Rectangle" x="0" y="0" width="12" height="12"></rect>
                </g>
            </g>
        </g>
    </g>
</svg>