<?xml version="1.0" encoding="UTF-8"?>
<svg width="14px" height="13px" viewBox="0 0 14 13" version="1.1" xmlns="http://www.w3.org/2000/svg" xmlns:xlink="http://www.w3.org/1999/xlink">
    <title>black_investor-25</title>
    <g id="Page-1" stroke="none" stroke-width="1" fill="none" fill-rule="evenodd" stroke-linecap="round" stroke-linejoin="round">
        <g id="TOOLTIPS-REGISTRATION-v0_2-(Desktop)" transform="translate(-371.000000, -179.000000)" stroke-width="0.5">
            <g id="Group-87" transform="translate(327.000000, 15.000000)">
                <g id="black_investor-25" transform="translate(45.000000, 165.000000)">
                    <path d="M10.08,8.68421053 C10.5868783,8.67745155 11.0753277,8.87408721 11.4361425,9.23015452 C11.7969574,9.58622183 12,10.072024 12,10.5789474 C11.0526316,11.6368421 0.972631579,11.6242105 -7.49727859e-09,10.5789474 C-7.49727859e-09,10.072024 0.203042603,9.58622183 0.563857473,9.23015452 C0.924672343,8.87408721 1.4131217,8.67745155 1.92,8.68421053 L1.94526316,8.68421053" id="Shape" stroke="#717FB0"></path>
                    <path d="M9.15789474,5.68421053 L9.15789474,5.68421053 C9.37237628,5.61928667 9.50680135,5.40689504 9.47368421,5.18526316 L9.47368421,4.42105263 C9.50131454,4.31908847 9.48191935,4.21011133 9.42080588,4.12394133 C9.3596924,4.03777134 9.2632595,3.98343087 9.15789474,3.97578947 L9.15789474,2.52631579" id="Shape" stroke="#717FB0"></path>
                    <path d="M2.84210526,3.15789474 L2.84210526,3.97578947 C2.7367405,3.98343087 2.6403076,4.03777134 2.57919412,4.12394133 C2.51808065,4.21011133 2.49868546,4.31908847 2.52631579,4.42105263 L2.52631579,5.05263158 C2.49306747,5.3078346 2.61799385,5.55768737 2.84210526,5.68421053 L2.84210526,5.68421053" id="Shape" stroke="#717FB0"></path>
                    <path d="M2.21052632,1.26315789 L2.21052632,1.57894737 C2.21052632,2.88631579 3.55578947,3.94736842 4.92631579,3.94736842 C5.79718592,3.99115925 6.62616408,3.57066308 7.10526316,2.84210526 L9.15789474,2.84210526 L9.15789474,2.21052632 C9.15789474,1.86171489 8.87512721,1.57894737 8.52631579,1.57894737 L7.42105263,1.57894737 C7.3826003,0.999129924 7.16150299,0.446386655 6.78947368,2.80477396e-16 L2.21052632,2.80477396e-16" id="Shape" stroke="#FFD03C"></path>
                    <path d="M2.84210526,5.68421053 L2.84210526,6.78947368 C2.9069466,8.50595546 4.28351822,9.88252708 6,9.94736842 C7.71648178,9.88252708 9.0930534,8.50595546 9.15789474,6.78947368 L9.15789474,5.68421053 L7.57894737,6.63157895 L6.63157895,6 L5.36842105,6 L4.42105263,6.63157895 L2.84210526,5.68421053 Z" id="Shape" stroke="#FFD03C"></path>
                    <line x1="5.68421053" y1="7.26315789" x2="6.31578947" y2="7.26315789" id="Shape" stroke="#717FB0"></line>
                    <line x1="6" y1="10.1052632" x2="6" y2="11.3684211" id="Shape" stroke="#707EAF"></line>
                </g>
            </g>
        </g>
    </g>
</svg>