<?xml version="1.0" encoding="UTF-8"?>
<svg width="14px" height="14px" viewBox="0 0 14 14" version="1.1" xmlns="http://www.w3.org/2000/svg" xmlns:xlink="http://www.w3.org/1999/xlink">
    <title>Path</title>
    <g id="Page-1" stroke="none" stroke-width="1" fill="none" fill-rule="evenodd">
        <g id="TOOLTIPS-REGISTRATION-v0_2-(Desktop)" transform="translate(-371.000000, -239.000000)" stroke="#2D80FF" stroke-width="0.5">
            <g id="Group-84" transform="translate(327.000000, 15.000000)">
                <path d="M56.721,233.051 C56.72,233.051 55.496,232.45 54.729,232.055 C53.864,231.611 52.842,232.445 52.36,232.921 C51.925,232.751 51.06,232.353 50.354,231.646 C49.647,230.94 49.249,230.075 49.079,229.64 C49.555,229.159 50.39,228.139 49.945,227.271 C49.55,226.504 48.949,225.28 48.949,225.279 C48.865,225.108 48.69,225 48.5,225 L47.5,225 C46.375,225 45,226.384 45,228 C45,229.57 46.879,232.586 48.146,233.854 C49.414,235.121 52.43,237 54,237 C55.616,237 57,235.625 57,234.5 L57,233.5 C57,233.31 56.892,233.135 56.721,233.051 L56.721,233.051 Z" id="Path"></path>
            </g>
        </g>
    </g>
</svg>