<svg height="41" viewBox="0 0 40 41" width="40" xmlns="http://www.w3.org/2000/svg"><g fill="none" fill-rule="evenodd" transform="translate(0 .5)"><rect fill="#0a0d1c" height="40" rx="4" width="40"/><path d="m31.9066541 21.269415c-.3321974-1.0180245-1.4413083-1.5591849-2.4646908-1.2269874l-2.4325428.8090616-1.6234812-4.8222213 2.4325428-.8090616c1.0233825-.3321975 1.5591849-1.4359503 1.2323454-2.4593329-.3321974-1.0180245-1.4413083-1.5591848-2.4646909-1.2269874l-2.4325427.8090616-.8412097-2.51827113c-.3321975-1.0180245-1.4413084-1.55918489-2.4646909-1.22698742s-1.5591849 1.43595035-1.2323454 2.45933285l.8412097 2.5182711-5.0043941 1.6717034-.8412097-2.5182711c-.3321975-1.0180245-1.4413084-1.5591849-2.4646909-1.2269874-1.0233825.3321974-1.5591849 1.4359503-1.2323455 2.4593328l.8412097 2.5182712-2.42718468.8037035c-1.02338252.3321975-1.55918488 1.4359504-1.23234544 2.4593329.26790118.7769134 1.02338252 1.2859257 1.80029595 1.3180738.36434557.0535802.64296287-.0857284 3.09157967-.900148l1.6234812 4.8222213-2.4325428.8090616c-1.0180245.3321975-1.5591849 1.4413084-1.2323454 2.4593329.2679012.7769134 1.0233825 1.2859256 1.8002959 1.3180738.3643456.0535802.6429629-.0857284 3.0915797-.900148l.8412097 2.5182711c.3161234.905506 1.3234318 1.5538269 2.4646909 1.2269874 1.0233825-.3321974 1.5591849-1.4359503 1.2323454-2.4593328l-.8412097-2.5182711 5.0151102-1.6770615.8412097 2.5182712c.3161234.905506 1.3234318 1.5538268 2.4646909 1.2269874 1.0233825-.3321975 1.5591848-1.4359504 1.2323454-2.4593329l-.8412097-2.5182711 2.4325427-.8090616c1.0180245-.3214814 1.5591849-1.4305923 1.2269874-2.4486168zm-13.6147381 2.5289872-1.6234812-4.8329374 5.0097522-1.6770614 1.6234811 4.8329374z" fill="#fff"/></g></svg>