<svg height="40" viewBox="0 0 40 40" width="40" xmlns="http://www.w3.org/2000/svg"><g fill="none" fill-rule="evenodd"><rect fill="#0a0d1c" height="40" rx="4" width="40"/><path d="m30.7083334 13.7375c.1541667-.5208334 0-.9041667-.7416667-.9041667h-2.4541667c-.625 0-.9125.3291667-1.0666666.6958333 0 0-1.25 3.0458334-3.0166667 5.0208334-.5708333.5708333-.8333334.7541667-1.1458334.7541667-.1541666 0-.3916666-.1833334-.3916666-.7041667v-4.8625c0-.625-.175-.9041667-.6916667-.9041667h-3.8583333c-.3916667 0-.6250001.2916667-.6250001.5625 0 .5916667.8833334.7291667.9750001 2.3958333v3.6166667c0 .7916667-.1416667.9375-.4541667.9375-.8333334 0-2.8583334-3.0583333-4.0583334-6.5583333-.2416666-.6791667-.4791666-.9541667-1.1083333-.9541667h-2.4541667c-.7 0-.84166667.3291667-.84166667.6958333 0 .65.83333334 3.8791667 3.87916667 8.1458334 2.0291667 2.9125 4.8875001 4.4916667 7.4875001 4.4916667 1.5625 0 1.7541666-.35 1.7541666-.9541667 0-2.7833333-.1416666-3.0458333.6416667-3.0458333.3625 0 .9875.1833333 2.4458334 1.5875 1.6666666 1.6666667 1.9416666 2.4125 2.875 2.4125h2.4541667c.7 0 1.0541666-.35.85-1.0416667-.4666667-1.4541666-3.6208334-4.4458333-3.7625001-4.6458333-.3625-.4666667-.2583333-.675 0-1.0916667.0041667-.0041667 3.0000001-4.2208334 3.3083334-5.65z" fill="#fff"/></g></svg>