<?xml version="1.0" encoding="UTF-8"?>
<svg width="12px" height="12px" viewBox="0 0 12 12" version="1.1" xmlns="http://www.w3.org/2000/svg" xmlns:xlink="http://www.w3.org/1999/xlink">
    <title>Base / Layout</title>
    <defs>
        <path d="M7.75,0 C5.403,0 3.5,1.903 3.5,4.25 C3.5,4.771147 3.598825,5.268102 3.770508,5.729492 L0,9.5 L0,12 L2.5,12 L2.5,10.5 L4,10.5 L4,9 L5.5,9 L6.270508,8.229492 C6.731898,8.401175 7.228853,8.5 7.75,8.5 C10.097,8.5 12,6.597 12,4.25 C12,1.903 10.097,0 7.75,0 Z M8.75,2 C9.4405,2 10,2.5595 10,3.25 C10,3.9405 9.4405,4.5 8.75,4.5 C8.0595,4.5 7.5,3.9405 7.5,3.25 C7.5,2.5595 8.0595,2 8.75,2 Z" id="path-1"></path>
    </defs>
    <g id="Page-1" stroke="none" stroke-width="1" fill="none" fill-rule="evenodd">
        <g id="TOOLTIPS-REGISTRATION-v0_2-(Desktop)" transform="translate(-372.000000, -361.000000)">
            <g id="Group-87" transform="translate(327.000000, 15.000000)">
                <g id="Base-/-Layout" transform="translate(45.000000, 346.000000)">
                    <mask id="mask-2" fill="white">
                        <use xlink:href="#path-1"></use>
                    </mask>
                    <use id="Mask" fill="#2D80FF" fill-rule="nonzero" xlink:href="#path-1"></use>
                </g>
            </g>
        </g>
    </g>
</svg>